<?xml version="1.0" standalone="no"?>
<!DOCTYPE svg PUBLIC "-//W3C//DTD SVG 1.1//EN" "http://www.w3.org/Graphics/SVG/1.1/DTD/svg11.dtd" >
<svg xmlns="http://www.w3.org/2000/svg">
<metadata>
Created by FontForge 20120731 at Wed Aug 17 13:05:04 2016
 By admin
</metadata>
<defs>
<font id="iconfont" horiz-adv-x="1024" >
  <font-face 
    font-family="iconfont"
    font-weight="500"
    font-stretch="normal"
    units-per-em="1024"
    panose-1="2 0 6 3 0 0 0 0 0 0"
    ascent="896"
    descent="-128"
    x-height="792"
    bbox="0 -212 1844 896"
    underline-thickness="50"
    underline-position="-100"
    unicode-range="U+0078-E618"
  />
<missing-glyph horiz-adv-x="374" 
d="M34 0v682h272v-682h-272zM68 34h204v614h-204v-614z" />
    <glyph glyph-name=".notdef" horiz-adv-x="374" 
d="M34 0v682h272v-682h-272zM68 34h204v614h-204v-614z" />
    <glyph glyph-name=".null" horiz-adv-x="0" 
 />
    <glyph glyph-name="nonmarkingreturn" horiz-adv-x="341" 
 />
    <glyph glyph-name="x" unicode="x" horiz-adv-x="1001" 
d="M281 543q-27 -1 -53 -1h-83q-18 0 -36.5 -6t-32.5 -18.5t-23 -32t-9 -45.5v-76h912v41q0 16 -0.5 30t-0.5 18q0 13 -5 29t-17 29.5t-31.5 22.5t-49.5 9h-133v-97h-438v97zM955 310v-52q0 -23 0.5 -52t0.5 -58t-10.5 -47.5t-26 -30t-33 -16t-31.5 -4.5q-14 -1 -29.5 -0.5
t-29.5 0.5h-32l-45 128h-439l-44 -128h-29h-34q-20 0 -45 1q-25 0 -41 9.5t-25.5 23t-13.5 29.5t-4 30v167h911zM163 247q-12 0 -21 -8.5t-9 -21.5t9 -21.5t21 -8.5q13 0 22 8.5t9 21.5t-9 21.5t-22 8.5zM316 123q-8 -26 -14 -48q-5 -19 -10.5 -37t-7.5 -25t-3 -15t1 -14.5
t9.5 -10.5t21.5 -4h37h67h81h80h64h36q23 0 34 12t2 38q-5 13 -9.5 30.5t-9.5 34.5q-5 19 -11 39h-368zM336 498v228q0 11 2.5 23t10 21.5t20.5 15.5t34 6h188q31 0 51.5 -14.5t20.5 -52.5v-227h-327z" />
    <glyph glyph-name="uniE600" unicode="&#xe600;" 
d="M958 703h-320v128h-254v-128h-320v-61h129v-704h637v704h128v61zM446 770h131v-61h-131v61zM768 -1h-514v642h514v-642zM385 578h62v-513h-62v513zM579 578h61v-513h-61v513z" />
    <glyph glyph-name="uniE601" unicode="&#xe601;" 
d="M779 453h-264v260h-62v-260h-255v-62h255v-258h62v258h264v62zM487 8q-84 0 -161 32q-74 32 -131.5 89t-88.5 132q-33 76 -33 160.5t33 161.5q31 74 88.5 131t131.5 89q77 32 161 32t161 -32q74 -32 131.5 -89t88.5 -131q33 -77 33 -161.5t-33 -160.5q-31 -75 -88.5 -132
t-131.5 -89q-77 -32 -161 -32zM487.5 774q-95.5 0 -177 -47.5t-128.5 -128.5t-47 -176.5t47 -176.5t128.5 -128.5t177 -47.5t176.5 47.5t128 128.5t47 176.5t-47 176.5t-128 128.5t-176.5 47.5z" />
    <glyph glyph-name="uniE602" unicode="&#xe602;" 
d="M358 -53q-10 0 -18 6l-149 101q-10 7 -13 18.5t3 21.5q9 17 13 41q7 47 -15 89q-12 23 -47 33.5t-62 10.5q-12 0 -21 9t-9 22v193q0 12 8 21t21 10q30 2 66 13.5t48 30.5q9 13 10 27.5t-2 28t-12 41.5q-8 26 -12 40q-6 23 14 35l158 97q12 7 26 3q13 -5 18 -19
q2 -3 4.5 -8t11.5 -16t20.5 -20t31 -16.5t42.5 -8.5h6q19 0 36.5 7t28 16t19 20.5t11 17t4.5 8.5q4 14 17.5 18.5t26.5 -2.5l169 -102q10 -6 13.5 -18t-2.5 -22q-8 -17 -15 -38t-10 -46t7 -37q19 -29 35.5 -36t48.5 -8q24 0 37 -2q12 -2 19.5 -10.5t7.5 -20.5v-194
q0 -14 -11 -23.5t-25 -6.5h-12q-60 0 -93 -45q-21 -28 -20 -57t24 -69q5 -10 3 -21t-11 -18l-138 -108q-10 -8 -22.5 -6.5t-20.5 11.5q-2 3 -7 8t-18.5 17t-27.5 21t-34 16.5t-39 7.5h-1q-45 0 -84 -33q-20 -16 -32 -34q-6 -11 -19 -14q-3 -1 -6 -1zM500 91q78 0 153 -72
l96 75q-17 36 -19 69q-4 53 31 100q30 41 77 59q25 9 53 11v135h-4q-21 0 -33 2t-31.5 8t-36.5 21t-33 39q-30 44 -9 121q5 18 12 36l-118 72q-8 -12 -18 -23q-52 -58 -130 -54q-77 4 -128 55q-10 10 -18 22l-111 -68q2 -6 5 -16q15 -48 17 -72q3 -41 -20 -77
q-26 -42 -99 -62q-17 -4 -35 -7v-138q18 -2 34 -6q73 -19 99 -68q40 -78 12 -162l105 -71q63 70 147 71h2zM496 208q-77 0 -131.5 54.5t-54.5 131.5t54.5 131.5t131.5 54.5t131.5 -54.5t54.5 -131.5t-54.5 -131.5t-131.5 -54.5zM495.5 518q-51.5 0 -88 -36.5t-36.5 -88
t36.5 -88t88 -36.5t88.5 36.5t37 88t-37 88t-88.5 36.5z" />
    <glyph glyph-name="uniE603" unicode="&#xe603;" 
d="M87 237l-43 44l455 455l450 -450l-43 -43l-407 406z" />
    <glyph glyph-name="uniE604" unicode="&#xe604;" 
d="M960 408q-3 40 -15 90q-5 20 -16.5 31t-26.5 10h-4q-49 -3 -86.5 30t-40.5 83q-1 22 8 46q7 18 0.5 36.5t-22.5 28.5l-1 1l-119 57l-1 1q-11 4 -23 3q-26 -1 -42 -20q-15 -18 -41.5 -37t-49.5 -21q-24 -1 -52.5 15.5t-45.5 32.5q-18 17 -45 16q-12 -1 -22 -6h-1l-116 -73
l-1 -1q-15 -11 -19 -30t5 -36q11 -22 13 -46q2 -49 -31 -86.5t-83 -39.5l-4 -1q-14 0 -24.5 -12.5t-12.5 -32.5q-7 -51 -5 -90.5t15 -90.5q5 -19 16 -30t26 -11v1h4q50 3 87 -30.5t40 -83.5q2 -22 -8 -46q-6 -18 0 -36.5t22 -28.5h2l116 -57l2 -1q10 -4 22 -3q27 1 42 21
q15 18 42.5 38.5t51.5 22.5q24 1 53 -16.5t47 -34.5q18 -18 45 -17q12 1 21 6l2 1l113 71l1 1q15 12 19.5 31t-4.5 36q-12 24 -13 45q-3 50 30.5 87t82.5 40h4q15 1 25 13t13 32q7 51 5 91zM497.5 215q-69.5 0 -118.5 49t-49 118.5t49 118.5t118.5 49t118.5 -49t49 -118.5
t-49 -118.5t-118.5 -49z" />
    <glyph glyph-name="uniE605" unicode="&#xe605;" 
d="M942 55l-244 243q78 90 78 210q0 134 -94.5 228.5t-228.5 94.5t-228.5 -94.5t-94.5 -228.5t94.5 -228.5t228.5 -94.5q113 0 201 70l244 -244zM191 508q0 108 77 185t185 77t185 -77t77 -185t-77 -185t-185 -77t-185 77t-77 185z" />
    <glyph glyph-name="uniE606" unicode="&#xe606;" 
d="M973 446l-441 345q-19 15 -38 0l-447 -345q-10 -8 -11.5 -20.5t6.5 -22.5q9 -12 24 -12q10 0 19 6l47 37v-439q0 -22 16.5 -38.5t38.5 -16.5h654q23 0 39.5 16.5t16.5 38.5v432l38 -30q10 -8 22.5 -6.5t20.5 12t6.5 23t-11.5 20.5zM553 2h-87v256h87v-256zM835 2h-220
v262q0 23 -16.5 39t-39.5 16h-99q-23 0 -39 -16t-16 -39v-262h-211v479l319 247l322 -253v-473z" />
    <glyph glyph-name="uniE607" unicode="&#xe607;" 
d="M856 716q-2 13 -13.5 19.5t-23.5 2.5q-101 -32 -216 36q-59 35 -99 78q-10 12 -25 10q-15 2 -25 -10q-38 -42 -99 -78q-115 -68 -216 -36q-12 4 -23 -2.5t-13 -19.5q-4 -16 -7.5 -43.5t-3 -102t14.5 -143.5q28 -138 102 -242q94 -132 255 -201q9 -4 14 -4q8 0 16 4
q162 69 255 201q75 104 103 242q13 69 14 143.5t-3 102t-7 43.5zM797 438q-58 -281 -316 -397q-258 116 -315 397q-24 117 -10 238q56 -10 114 2q59 13 118 49q50 30 93 70q43 -40 93 -70q60 -36 119 -49q58 -12 113 -2q14 -121 -9 -238zM452 292q-12 0 -20 8l-100 100
q-8 9 -8 20.5t8.5 20t20 8.5t20.5 -8l80 -80l164 160q8 8 20 8t20.5 -8.5t8 -20.5t-8.5 -21l-185 -179q-8 -8 -20 -8z" />
    <glyph glyph-name="uniE608" unicode="&#xe608;" 
d="M511 121l-449 449l44 43l405 -405l406 405l43 -43z" />
    <glyph glyph-name="uniE609" unicode="&#xe609;" horiz-adv-x="2991" 
d="M1814 211q-28 68 -81 121t-121 81q-11 5 -21 9q15 10 28 24q66 65 66 158t-66 158.5t-158.5 65.5t-158.5 -65.5t-66 -158.5t66 -158q14 -14 30 -25l-20 -8q-68 -28 -120.5 -81t-81.5 -121q-30 -71 -30 -148q0 -30 5 -58h62q-5 28 -5 58q0 72 30.5 136t83.5 109
q39 29 88.5 49t96.5 24q10 -1 20 -1t20 1q48 -4 98 -24t89 -49q54 -45 84.5 -109t30.5 -136q0 -30 -5 -58h62q4 28 4 58q0 77 -30 148zM1298 604q0 67 47.5 115t115 48t115 -48t47.5 -115q0 -61 -40.5 -107t-100.5 -54h-18h-1h-1h-1h-21q-60 7 -101 53t-41 108z" />
    <glyph glyph-name="uniE60A" unicode="&#xe60a;" horiz-adv-x="4011" 
d="M1360 679l-43 44l-294 -294l-294 294l-44 -44l294 -294l-294 -294l44 -43l294 294l294 -294l43 43l-294 294z" />
    <glyph glyph-name="uniE60B" unicode="&#xe60b;" 
d="M668 54q-6 -6 -15 -7t-17 3q-51 35 -119.5 35t-119.5 -35q-7 -5 -16 -3.5t-14.5 7.5t-4.5 14t8 13q62 43 147 43q84 0 147 -42q7 -5 8 -13t-4 -15zM664 409q-14 0 -24.5 -10t-10.5 -24.5t10.5 -24.5t24.5 -10t24 10t10 24.5t-10 24.5t-24 10zM405 374.5
q0 14.5 -10.5 24.5t-24.5 10t-24 -10t-10 -24.5t10 -24.5t24 -10t24.5 10t10.5 24.5zM944 300q0 -179 -126.5 -305.5t-305.5 -126.5t-305.5 126.5t-126.5 305.5t126.5 305.5t305.5 126.5t305.5 -126.5t126.5 -305.5zM898 300q0 160 -113 273t-273 113t-273 -113t-113 -273
t113 -273t273 -113t273 113t113 273z" />
    <glyph glyph-name="uniE60C" unicode="&#xe60c;" 
d="M512 812q-104 0 -199 -40.5t-163.5 -109t-109 -163.5t-40.5 -199t40.5 -199t109 -163.5t163.5 -109t199 -40.5t199 40.5t163.5 109t109 163.5t40.5 199t-40.5 199t-109 163.5t-163.5 109t-199 40.5zM514 622q42 -4 46 -42l-11 -436q-7 -28 -35 -28t-35 28l-11 436
q4 38 46 42zM510 -22q-46 4 -49 46q3 49 49 53q49 -4 53 -53q0 -46 -53 -46z" />
    <glyph glyph-name="uniE60D" unicode="&#xe60d;" 
d="M694 580q17 -2 50.5 -1.5t45.5 -1.5q34 -6 50.5 -33t12.5 -69h-54q-1 -54 -1 -298q0 -16 1 -48.5t0.5 -56.5t-2.5 -44q-3 -31 -23.5 -50.5t-50.5 -25.5q-17 -2 -38.5 -2.5t-50.5 0.5t-41 1q-29 0 -82.5 -0.5t-97 -0.5t-81.5 1q-63 1 -92 39q-3 4 -5 8.5t-4 10.5t-3 10
t-2 12l-2 12v13v14v14v15v376h-52q-6 38 8.5 65t43.5 36q12 4 30.5 4.5t35.5 -0.5t38 0q-3 49 6 74.5t42 29.5q9 1 21.5 1t29 -0.5t25.5 -0.5h152h16h19q5 0 14 -1t14.5 -3t10.5 -6q6 -5 9.5 -12.5t4.5 -18.5t1.5 -19.5t0 -22.5t0.5 -21zM380 629v-50h262v52h-261
q-1 0 -1 -2zM329 469v-318q0 -6 -0.5 -19.5t-0.5 -24t0.5 -22.5t3 -20t7.5 -11q5 -4 15 -4t16 4q5 3 7.5 11t3.5 20t1 22t-0.5 23.5t-0.5 19.5v322h-51q-1 -1 -1 -3zM485 469v-308q0 -3 -1.5 -30t-0.5 -44.5t6 -24.5q5 -8 18 -11t21 3q4 4 6.5 12.5t3 20.5t0.5 23t-1 24
t-1 18v320h-51q-1 -1 0 -3zM642 469v-323q0 -5 -0.5 -20.5t-0.5 -24t1 -20t5 -18.5t10 -9q7 -3 16.5 -2t13.5 4q5 4 7 17.5t2 26t-1 31t-1 23.5v318h-51q-1 -1 -1 -3z" />
    <glyph glyph-name="uniE60E" unicode="&#xe60e;" 
d="M0 800v-832q0 -40 28 -68t68 -28h49h783q40 0 68 28t28 68v832q0 40 -28 68t-68 28h-783h-49q-40 0 -68 -28t-28 -68zM192 800h-96v-96h49h783l-96 96v-832l96 96h-783h-49v-96h96v832z" />
    <glyph glyph-name="uniE60F" unicode="&#xe60f;" 
d="M834 171h-457q-10 0 -18 7.5t-10 17.5l-49 328l-28 161q-3 31 -27 52.5t-55 21.5h-54q-11 0 -19 -8t-8 -19.5t8 -19.5t19 -8h37q10 0 18.5 -8t9.5 -19l28 -161l49 -329q4 -32 28 -58t54 -26h474q11 0 19 11t8 23t-8 23t-19 11v0zM894 647q-25 28 -56 28h-484
q-11 0 -19.5 -11t-8.5 -23t8.5 -22.5t19.5 -10.5h473q9 0 15 -7q9 -11 7 -28l-45 -224q-1 -11 -10 -18.5t-20 -7.5l-356 -27q-11 -1 -19 -10q-8 -10 -7 -30q1 -11 7.5 -19t16.5 -8h2l369 28q31 0 54.5 21t27.5 52l46 244q5 43 -21 73v0zM367 -48q24 0 40.5 16.5t16.5 40
t-16.5 40t-40 16.5t-40 -16.5t-16.5 -40t16.5 -40t39.5 -16.5v0zM771 -48q24 0 40.5 16.5t16.5 40t-16.5 40t-40 16.5t-40 -16.5t-16.5 -40t16.5 -40t39.5 -16.5v0zM771 -48z" />
    <glyph glyph-name="uniE610" unicode="&#xe610;" 
d="M728 852q-128 0 -215 -119q-89 119 -215 119q-122 0 -208 -93.5t-86 -225.5q0 -37 7 -71t22 -66.5t25.5 -51t30.5 -48.5q18 -28 41.5 -58t50 -57.5t54.5 -54.5t56 -51t53.5 -45.5t49 -39.5t40 -30t28.5 -21l12 -9q17 -13 38 -13q20 0 38 13l12 9t28.5 21t40 30t49 39.5
t53.5 46t56.5 51.5t54.5 54.5t50 57t42 57.5q19 30 29.5 48.5t26 51t22.5 66.5t7 71q0 86 -39.5 159.5t-107 116.5t-146.5 43v0z" />
    <glyph glyph-name="uniE611" unicode="&#xe611;" horiz-adv-x="1109" 
d="M415 2q-16 0 -29 11l-300 269q-14 12 -15 30t11.5 32t30.5 15t32 -11l266 -238l555 672q12 14 30 16t32.5 -10t16 -30t-10.5 -32l-584 -708q-12 -15 -31 -16h-4z" />
    <glyph glyph-name="uniE612" unicode="&#xe612;" 
d="M960 811q-83 -44 -177 -126h-655v0v-321l-128 -64q54 -20 128 -73v-247v-64h767v0v550q39 21 64 27q-22 52 -23.5 102t10.5 118.5t14 97.5zM191 623h525q-86 -83 -173 -188t-130 -168l-44 -63l-113 224l-65 -33v228zM191 177q108 -90 192 -197h-192v197zM832 -20h-448
q47 88 185.5 224.5t262.5 221.5v-446z" />
    <glyph glyph-name="uniE613" unicode="&#xe613;" horiz-adv-x="1043" 
d="M0 812l1024 -1024v1024h-1024zM859 599q-51 -25 -99 -74q-21 -21 -50.5 -63.5t-49.5 -74.5l-20 -32q-71 65 -96 86l-79 56l103 70l63 -104q35 88 105 183q21 28 51.5 56t51.5 42l20 14v-159z" />
    <glyph glyph-name="uniE614" unicode="&#xe614;" 
d="M598 653h-468q-14 0 -24.5 -10.5t-10.5 -25.5v-698q0 -15 10.5 -25.5t24.5 -10.5h699q15 0 25 10.5t10 25.5v536h31v-536q0 -27 -19.5 -46.5t-46.5 -19.5l-699 -1q-27 0 -46.5 19.5t-19.5 47.5v698q0 27 19.5 46.5t46.5 19.5h468v-30zM517 236q-5 -5 -12.5 -5t-12.5 5
q-6 6 -6 13t6 13l438 438q5 5 12.5 5t12.5 -5q5 -6 5 -13.5t-5 -12.5zM250 478q-5 5 -5 12.5t5 12.5q5 6 12.5 6t12.5 -6l242 -241q5 -6 5 -13t-5 -13q-5 -5 -12.5 -5t-12.5 5z" />
    <glyph glyph-name="uniE615" unicode="&#xe615;" horiz-adv-x="1026" 
d="M1024 894l-1022 -1022h1024zM680 -32l-226 209l60 72l151 -140l201 240l75 -69z" />
    <glyph glyph-name="uniE616" unicode="&#xe616;" 
d="M60 61h-60q0 -64 44.5 -108.5t108.5 -44.5v60q-39 0 -66 27t-27 66zM60 389h-60v-122h60v122zM0 596h60q0 38 27 65.5t66 27.5v60q-63 0 -108 -45t-45 -108zM60 226h-60v-123h60v123zM60 550h-60v-123h60v123zM845 496q-28 -34 -54 -69h54v69zM644 697v52h-123v-60h113
q8 7 10 8zM197 -94h123v60h-123v-60zM785 103h59v123h-59v-123zM690 -32v-60q63 0 108 44.5t45 108.5h-60q0 -39 -27.5 -66t-65.5 -27zM785 267h59v122h-59v-122zM197 689h123v60h-123v-60zM361 689h123v60h-123v-60zM361 -94h123v60h-123v-60zM521 -94h123v60h-123v-60z
M1000 862q-99 -61 -193.5 -133.5t-168 -142t-124 -122t-91.5 -101.5l-225 176l-99 -80l388 -395q36 91 110 214.5t189.5 270t237.5 258.5z" />
    <glyph glyph-name="uniE617" unicode="&#xe617;" horiz-adv-x="1025" 
d="M1016 478q-3 11 -12 17t-20 4t-17.5 -11t-3.5 -20q7 -42 7 -84q0 -93 -36.5 -178t-97.5 -146t-146 -97.5t-178 -36.5t-178 36.5t-146 97.5t-97.5 146t-36.5 178t36.5 178t97.5 146t146 97.5t178 36.5q136 0 250 -74q9 -6 20 -4t17.5 11.5t4 20.5t-11.5 17
q-127 83 -280 83q-104 0 -199 -40.5t-163.5 -109t-109 -163.5t-40.5 -199t40.5 -199t109 -163.5t163.5 -109t199 -40.5t199 40.5t163.5 109t109 163.5t40.5 199q0 47 -8 94zM261 504q-8 8 -19 8t-19 -7.5t-8 -19t8 -19.5l250 -252q8 -8 19 -8t19 8l492 494q8 8 8 19t-8 19
t-19 8t-19 -8l-473 -475z" />
    <glyph glyph-name="uniE618" unicode="&#xe618;" 
d="M396 200h-56h-56h-57q-11 0 -16 -8v-188q0 -5 5 -5h188q9 5 9 16q-1 33 -1 95v73q0 17 -16 17zM386 32q0 -7 -7 -7h-135q-7 0 -7 8v134q0 7 7 7h68h67q7 0 7 -7v-135zM228 399h167q10 0 13.5 4t3.5 14v166q0 10 -3.5 13.5t-13.5 3.5h-167q-11 0 -17 -7v-185q5 -9 17 -9z
M244 574h135q7 0 7 -7v-135q0 -7 -7 -7q-67 1 -135 0q-7 0 -7 7v68v67q0 7 7 7zM629 399h168q11 0 16 9v185q-6 7 -17 7h-168q-17 0 -17 -16v-168q0 -17 18 -17zM638 567q0 7 7 7h135q7 0 7 -7v-135q0 -7 -7 -7h-68h-67q-7 0 -7 7v135zM813 180l-2 2q-6 7 -15 5t-9 -13v-6
v-132v-6q0 -5 -6 -5h-15q-13 0 -16 -9t7 -17h51q5 0 5 4v177zM228 224h63h95q13 0 14 12q0 13 -13 14h-7h-132h-5q-6 0 -6 6v15q0 13 -10 16q-8 3 -16 -7v-48q6 -8 17 -8zM684 25h-143q-14 0 -17 -9q-2 -9 8 -17h161q10 8 6.5 17t-15.5 9zM813 269v61q-8 10 -17 7t-9 -16
v-43q0 -13 8.5 -16t17.5 7zM801 237q0 5 -4 9t-9 4h-6h-30h-30q-7 0 -8 1.5t-1 8.5v38q0 15 -13 15t-13 -15v-18v-19q0 -8 -1.5 -9.5t-8.5 -1.5h-60q-6 0 -9 -1q-8 -3 -9 -11t7 -12q2 -2 9 -2h92h80q13 0 14 13zM386 327q0 -15 13 -15.5t13 15.5q1 14 0 32q0 16 -16 16h-78
h-81q-12 0 -14 -11q-1 -12 10 -14q3 -1 8 -1h72h67q3 0 4.5 -1.5t1.5 -4.5v-16zM498 181q4 6 0 12.5t-12 6.5h-34q-16 0 -16 -16v-78v-80q0 -9 6 -13q7 -4 13.5 0t7.5 12v28v114q0 7 7 7h16q8 0 12 7zM610 349h7h165q7 0 10 1q7 2 8.5 9t-3.5 12q-4 4 -11 4h-86h-88
q-12 0 -13 -12t11 -14zM514 274q10 -1 16 0q7 0 6 -7q0 -10 0.5 -18t7 -11.5t13.5 1.5q6 4 6 13v60v6v8v8v40q0 9 -8 12q-6 4 -13 -1q-6 -4 -6 -13v-32v-33q0 -8 -7 -7h-15t-15 -13t15 -13zM469 324h16q15 0 15 13t-15 13q-11 1 -17 0q-6 0 -5 6v16q-1 16 -14 16t-13 -16
v-60v-62q0 -12 12 -13.5t14 11.5q1 2 1 7v63q0 6 6 6zM449 412q13 0 14 14v122q-1 15 -14 15t-13 -15v-60v-61q0 -15 13 -15zM463 574h98q6 0 10 4t4 10q0 12 -14 12h-49h-49q-14 0 -14 -12q-1 -6 3.5 -10t10.5 -4zM561 549v-98q0 -6 4 -10.5t10 -3.5q12 0 12 15q1 5 1 48
t-1 48q0 14 -12 15q-14 0 -14 -14zM586 49q15 0 14 13q0 13 -15 13h-35h-38q-8 0 -11.5 -6.5t-0.5 -12.5q4 -7 15 -7q17 -1 40 -1q27 0 31 1zM736 75h-12h-13h-11h-37q-5 0 -8 -3q-7 -5 -5 -13q2 -10 13 -10q4 -1 27 -1q40 0 46 1q7 0 11 4t4 9q-1 13 -15 13zM625 163
q-13 0 -13 -15q-1 -23 0 -47q0 -15 13 -15q13 1 13 15v23v24q0 15 -13 15zM651 262q12 0 12 14v24v25q-1 13 -13 13q-13 -1 -14 -15v-34q0 -13 1 -15q1 -13 14 -12zM712 174h23h1q15 0 15 13t-15 13h-47q-15 0 -15 -13q1 -13 15 -13h23zM587 300v-13v-13q0 -13 14 -12
q12 0 12 15v45q0 3 -1 6q-3 11 -14 9q-11 -1 -11 -12v-25zM688 149q0 6 -4 10t-10 4q-12 -1 -12 -15v-23v-12v-3v-5v-4q0 -15 13 -15q5 0 9 4t4 10v15v34zM763 152q-3 12 -14.5 10.5t-11.5 -13.5v-25v-24q0 -8 6 -11q6 -5 13 -1.5t7 12.5v28q0 1 0.5 11t-0.5 13zM512 100v24
v24q0 14 -12 15q-6 0 -10 -4t-4 -10v-50q0 -5 4.5 -9t9.5 -4q12 1 12 14zM537 174q13 -1 25 0q13 0 13 12.5t-13 13.5h-13h-12q-13 -1 -13 -13q0 -5 3.5 -9t9.5 -4zM650 187q0 13 -13 13q-12 1 -25 0q-6 0 -9.5 -4t-3.5 -9q0 -12 13 -13h13h12q6 0 10 4t3 9zM512 437v-12
q0 -12 10 -13q13 -2 15 10q3 17 0 31q-2 11 -14 10q-11 -1 -11 -13v-13zM349 300h-12q-12 0 -13 -11q-2 -13 10 -15q16 -2 31 1q11 2 10 13q-2 12 -13 12h-13zM257 324q-10 -2 -8 -14q1 -10 12 -11h13h13q11 1 13 12q1 11 -9 13q-17 4 -34 0zM501 563q-12 1 -14 -10
q-3 -16 0 -32q2 -10 14 -9q11 1 11 12v13v13q0 11 -11 13zM335 138h-46q-16 0 -16 -16v-22v-23q0 -16 16 -16h45q16 0 16 15v47q0 15 -15 15zM311 88q-10 0 -10.5 0.5t-0.5 10.5q0 11 0.5 11.5t11.5 1.5q10 -1 11 -1.5t1 -10.5q0 -11 -1 -11.5t-12 -0.5zM288 462q23 -1 47 0
q15 0 15 14v47q0 15 -16 15h-11h-11h-23h-1q-15 0 -15 -15v-46q0 -15 15 -15zM311 512q11 0 11.5 -1t1.5 -12q-1 -10 -1.5 -10.5t-10.5 -0.5q-11 0 -11.5 0.5t-0.5 11.5q0 10 0.5 11t10.5 1zM688 462q25 -1 48 0q14 0 15 14v47q-1 15 -15 15h-24h-23q-15 0 -15 -14v-48
q0 -14 14 -14zM712 512q10 0 11 -1t1 -12q0 -10 -1 -10.5t-10 -0.5q-11 0 -12 0.5t-1 11.5q0 10 1 11t11 1zM512 812q-104 0 -199 -40.5t-163.5 -109t-109 -163.5t-40.5 -199t40.5 -199t109 -163.5t163.5 -109t199 -40.5t199 40.5t163.5 109t109 163.5t40.5 199t-40.5 199
t-109 163.5t-163.5 109t-199 40.5zM512 -174q-96 0 -184 37.5t-151 101t-100.5 151t-37.5 184t37.5 184t100.5 151t151 101t184 37.5t184 -37.5t151 -101t100.5 -151t37.5 -184t-37.5 -184t-100.5 -151t-151 -101t-184 -37.5z" />
  </font>
</defs>
</svg>
